<svg version="1.1" viewBox="0.0 0.0 673.8136482939633 248.31496062992127" fill="none" stroke="none" stroke-linecap="square" stroke-miterlimit="10" xmlns:xlink="http://www.w3.org/1999/xlink" xmlns="http://www.w3.org/2000/svg"><clipPath id="p.0"><path d="m0 0l673.81366 0l0 248.31496l-673.81366 0l0 -248.31496z" clip-rule="nonzero"/></clipPath><g clip-path="url(#p.0)"><path fill="#000000" fill-opacity="0.0" d="m0 0l673.81366 0l0 248.31496l-673.81366 0z" fill-rule="evenodd"/><path fill="#000000" fill-opacity="0.0" d="m16.0 63.842518l233.6693 0l0 63.842518l-233.6693 0z" fill-rule="evenodd"/><path fill="#000000" d="m29.046875 80.83939l5.921875 0l7.625 35.046875l7.6875 -35.046875l5.859375 0l0.796875 43.203125l-4.84375 0l-0.484375 -31.359375l-7.296875 31.359375l-3.421875 0l-7.25 -31.359375l-0.484375 31.359375l-4.90625 0l0.796875 -43.203125zm39.571503 43.625q-1.75 0 -3.171875 -1.0q-1.40625 -1.015625 -2.21875 -2.671875q-0.796875 -1.65625 -0.796875 -3.46875q0 -3.625 1.546875 -5.890625q1.546875 -2.265625 3.9375 -3.59375q2.40625 -1.34375 6.6875 -3.046875l0 -2.1875q0 -3.046875 -0.625 -4.296875q-0.609375 -1.25 -2.46875 -1.25q-3.265625 0 -3.265625 4.375l0 1.546875l-5.640625 -0.21875q0.09375 -5.109375 2.328125 -7.53125q2.25 -2.4375 6.9375 -2.4375q4.4375 0 6.4375 2.4375q2.0 2.421875 2.0 7.328125l0 14.078125q0 3.453125 0.53125 7.40625l-5.234375 0q-0.578125 -3.046875 -0.734375 -4.53125q-0.640625 2.078125 -2.21875 3.515625q-1.578125 1.4375 -4.03125 1.4375zm2.25 -4.90625q1.109375 0 2.171875 -0.875q1.078125 -0.875 1.5625 -1.6875l0 -8.734375q-2.296875 1.28125 -3.5625 2.21875q-1.25 0.921875 -2.078125 2.15625q-0.8125 1.21875 -0.8125 2.921875q0 1.921875 0.6875 2.96875q0.6875 1.03125 2.03125 1.03125zm15.092743 -26.34375l5.703125 0l0 4.375q1.59375 -2.609375 3.265625 -3.671875q1.6875 -1.078125 3.5625 -1.078125q0.46875 0 0.90625 0.0625l0 6.296875q-1.71875 -0.640625 -3.15625 -0.640625q-1.375 0 -2.46875 0.671875q-1.09375 0.65625 -2.109375 2.3125l0 22.5l-5.703125 0l0 -30.828125zm17.055801 -12.421875l5.703125 0l0 25.765625l8.328125 -13.34375l5.96875 0l-7.25 12.0625l7.03125 18.765625l-5.703125 0l-5.75 -15.78125l-2.625 3.9375l0 11.796875l-5.703125 0l0 -43.203125zm29.924606 43.671875q-4.0 0 -5.875 -2.90625q-1.859375 -2.90625 -1.859375 -9.625l0 -5.96875q0 -6.125 1.625 -9.640625q1.625 -3.53125 5.9375 -3.53125q2.71875 0 5.125 2.40625l0 -14.359375l5.703125 0l0 43.203125l-5.703125 0l0 -1.96875q-2.234375 2.390625 -4.953125 2.390625zm1.4375 -4.46875q1.703125 0 3.515625 -1.171875l0 -20.21875q-1.96875 -1.328125 -3.625 -1.328125q-3.359375 0 -3.359375 6.453125l0 8.6875q0 3.734375 0.6875 5.65625q0.703125 1.921875 2.78125 1.921875zm23.461624 4.46875q-4.90625 0 -6.96875 -2.90625q-2.046875 -2.90625 -2.046875 -8.453125l0 -8.953125q0 -5.546875 2.046875 -8.453125q2.0625 -2.90625 6.96875 -2.90625q4.859375 0 6.90625 2.90625q2.046875 2.90625 2.046875 8.453125l0 8.953125q0 5.546875 -2.046875 8.453125q-2.046875 2.90625 -6.90625 2.90625zm0 -4.203125q1.546875 0 2.234375 -0.90625q0.703125 -0.90625 0.859375 -2.234375q0.15625 -1.34375 0.15625 -3.640625l0 -9.65625q0 -2.28125 -0.15625 -3.640625q-0.15625 -1.359375 -0.859375 -2.265625q-0.6875 -0.90625 -2.234375 -0.90625q-1.546875 0 -2.265625 0.90625q-0.71875 0.90625 -0.890625 2.265625q-0.15625 1.359375 -0.15625 3.640625l0 9.65625q0 2.296875 0.15625 3.640625q0.171875 1.328125 0.890625 2.234375q0.71875 0.90625 2.265625 0.90625zm12.805038 -27.046875l4.6875 0l3.203125 22.71875l4.09375 -22.71875l4.375 0l4.109375 22.609375l3.203125 -22.609375l4.6875 0l-5.109375 30.828125l-4.8125 0l-4.203125 -21.765625l-4.15625 21.765625l-5.125 0l-4.953125 -30.828125zm32.731888 0l5.703125 0l0 3.046875q3.6875 -3.46875 7.53125 -3.46875q2.5 0 3.5625 1.8125q1.078125 1.8125 1.078125 4.484375l0 24.953125l-5.71875 0l0 -23.296875q0 -1.765625 -0.53125 -2.609375q-0.53125 -0.859375 -1.921875 -0.859375q-1.703125 0 -4.0 1.921875l0 24.84375l-5.703125 0l0 -30.828125z" fill-rule="nonzero"/><path fill="#000000" fill-opacity="0.0" d="m249.6693 106.2126l227.96849 0" fill-rule="evenodd"/><path stroke="#000000" stroke-width="3.0" stroke-linejoin="round" stroke-linecap="butt" d="m249.6693 106.2126l209.96849 0" fill-rule="evenodd"/><path fill="#000000" stroke="#000000" stroke-width="3.0" stroke-linecap="butt" d="m459.6378 111.16779l13.614288 -4.9551926l-13.614288 -4.9552z" fill-rule="evenodd"/><path fill="#000000" fill-opacity="0.0" d="m499.33597 0l233.66928 0l0 63.842518l-233.66928 0z" fill-rule="evenodd"/><path fill="#000000" d="m511.69534 16.996872l6.0312195 0l0 18.671875l11.09375 0l0 -18.671875l6.015625 0l0 43.203125l-6.015625 0l0 -20.21875l-11.09375 0l0 20.21875l-6.0312195 0l0 -43.203125zm34.667023 4.484375l-7.3125 0l0 -4.484375l20.421875 0l0 4.484375l-7.09375 0l0 38.71875l-6.015625 0l0 -38.71875zm17.961975 -4.484375l5.921875 0l7.625 35.046875l7.6875 -35.046875l5.859375 0l0.796875 43.203125l-4.84375 0l-0.484375 -31.359375l-7.296875 31.359375l-3.421875 0l-7.25 -31.359375l-0.484375 31.359375l-4.90625 0l0.796875 -43.203125zm34.508972 0l6.03125 0l0 38.890625l11.03125 0l0 4.3125l-17.0625 0l0 -43.203125z" fill-rule="nonzero"/><path fill="#000000" fill-opacity="0.0" d="m499.33597 63.842518l233.66928 0l0 63.842518l-233.66928 0z" fill-rule="evenodd"/><path fill="#000000" d="m511.69534 80.83939l10.7187195 0q5.59375 0 8.125 3.046875q2.546875 3.046875 2.546875 8.90625q0 5.28125 -2.71875 8.21875q-2.71875 2.921875 -7.90625 2.921875l-4.734375 0l0 20.109375l-6.0312195 0l0 -43.203125zm8.7968445 18.78125q2.671875 0 4.140625 -0.578125q1.46875 -0.59375 2.09375 -2.03125q0.640625 -1.453125 0.640625 -4.171875q0 -3.296875 -0.484375 -4.84375q-0.46875 -1.546875 -1.890625 -2.1875q-1.40625 -0.640625 -4.4375 -0.640625l-2.828125 0l0 14.453125l2.765625 0zm16.800598 -18.78125l9.390625 0q6.984375 0 9.890625 3.203125q2.90625 3.203125 2.90625 9.96875l0 15.90625q0 7.140625 -2.859375 10.640625q-2.84375 3.484375 -9.46875 3.484375l-9.859375 0l0 -43.203125zm9.4375 38.890625q3.140625 0 4.546875 -1.21875q1.421875 -1.234375 1.765625 -3.34375q0.359375 -2.109375 0.359375 -6.375l0 -14.03125q0 -3.671875 -0.453125 -5.609375q-0.453125 -1.953125 -1.90625 -2.890625q-1.4375 -0.9375 -4.46875 -0.9375l-3.25 0l0 34.40625l3.40625 0zm18.666382 -38.890625l16.6875 0l0 4.328125l-10.65625 0l0 14.390625l8.265625 0l0 4.265625l-8.265625 0l0 20.21875l-6.03125 0l0 -43.203125z" fill-rule="nonzero"/><path fill="#000000" fill-opacity="0.0" d="m499.33597 127.685036l233.66928 0l0 63.84252l-233.66928 0z" fill-rule="evenodd"/><path fill="#000000" d="m510.25784 144.68192l5.0155945 0l4.640625 31.046875l5.8125 -30.875l4.265625 0l5.859375 31.03125l4.53125 -31.203125l4.90625 0l-6.921875 43.203125l-4.375 0l-6.03125 -32.0l-6.078125 32.0l-4.59375 0l-7.0312195 -43.203125zm48.31363 43.625q-4.90625 0 -6.96875 -2.90625q-2.046875 -2.90625 -2.046875 -8.453125l0 -8.953125q0 -5.546875 2.046875 -8.453125q2.0625 -2.90625 6.96875 -2.90625q4.859375 0 6.90625 2.90625q2.046875 2.90625 2.046875 8.453125l0 8.953125q0 5.546875 -2.046875 8.453125q-2.046875 2.90625 -6.90625 2.90625zm0 -4.203125q1.546875 0 2.234375 -0.90625q0.703125 -0.90625 0.859375 -2.234375q0.15625 -1.34375 0.15625 -3.640625l0 -9.65625q0 -2.28125 -0.15625 -3.640625q-0.15625 -1.359375 -0.859375 -2.265625q-0.6875 -0.90625 -2.234375 -0.90625q-1.546875 0 -2.265625 0.90625q-0.71875 0.90625 -0.890625 2.265625q-0.15625 1.359375 -0.15625 3.640625l0 9.65625q0 2.296875 0.15625 3.640625q0.171875 1.328125 0.890625 2.234375q0.71875 0.90625 2.265625 0.90625zm14.351929 -27.046875l5.703125 0l0 4.375q1.59375 -2.609375 3.265625 -3.671875q1.6875 -1.078125 3.5625 -1.078125q0.46875 0 0.90625 0.0625l0 6.296875q-1.71875 -0.640625 -3.15625 -0.640625q-1.375 0 -2.46875 0.671875q-1.09375 0.65625 -2.109375 2.3125l0 22.5l-5.703125 0l0 -30.828125zm24.102661 31.25q-4.0 0 -5.875 -2.90625q-1.859375 -2.90625 -1.859375 -9.625l0 -5.96875q0 -6.125 1.625 -9.640625q1.625 -3.53125 5.9375 -3.53125q2.71875 0 5.125 2.40625l0 -14.359375l5.703125 0l0 43.203125l-5.703125 0l0 -1.96875q-2.234375 2.390625 -4.953125 2.390625zm1.4375 -4.46875q1.703125 0 3.515625 -1.171875l0 -20.21875q-1.96875 -1.328125 -3.625 -1.328125q-3.359375 0 -3.359375 6.453125l0 8.6875q0 3.734375 0.6875 5.65625q0.703125 1.921875 2.78125 1.921875z" fill-rule="nonzero"/><path fill="#000000" fill-opacity="0.0" d="m240.0 39.842518l233.66928 0l0 63.842518l-233.66928 0z" fill-rule="evenodd"/><path fill="#000000" d="m287.2766 87.648766q-1.84375 0 -3.328125 -0.703125q-1.46875 -0.703125 -2.5 -1.90625q-1.015625 -1.203125 -1.5625 -2.796875q-0.53125 -1.59375 -0.53125 -3.40625q0 -2.515625 1.0 -4.828125q1.0 -2.328125 2.703125 -4.109375q1.703125 -1.78125 3.953125 -2.8125q2.265625 -1.046875 4.828125 -1.046875q2.828125 0 4.640625 1.34375q1.828125 1.34375 2.390625 3.625l-2.796875 0.828125q-0.484375 -1.59375 -1.765625 -2.484375q-1.265625 -0.90625 -3.078125 -0.90625q-1.75 0 -3.375 0.796875q-1.625 0.796875 -2.90625 2.15625q-1.28125 1.359375 -2.046875 3.203125q-0.75 1.84375 -0.75 3.875q0 1.453125 0.390625 2.671875q0.40625 1.21875 1.125 2.140625q0.734375 0.90625 1.75 1.4375q1.015625 0.515625 2.25 0.515625q0.96875 0 1.9375 -0.28125q0.984375 -0.28125 1.859375 -0.78125q0.890625 -0.5 1.59375 -1.140625q0.703125 -0.640625 1.0625 -1.359375l2.515625 0.796875q-0.640625 1.125 -1.640625 2.0625q-1.0 0.9375 -2.25 1.640625q-1.234375 0.703125 -2.640625 1.078125q-1.390625 0.390625 -2.828125 0.390625zm20.914978 0q-1.84375 0 -3.296875 -0.703125q-1.453125 -0.703125 -2.453125 -1.875q-1.0 -1.1875 -1.546875 -2.765625q-0.546875 -1.578125 -0.546875 -3.375q0 -2.53125 1.015625 -4.84375q1.03125 -2.328125 2.75 -4.109375q1.71875 -1.78125 3.953125 -2.859375q2.25 -1.078125 4.734375 -1.078125q1.828125 0 3.265625 0.703125q1.453125 0.703125 2.46875 1.890625q1.015625 1.171875 1.546875 2.78125q0.546875 1.59375 0.546875 3.390625q0 2.484375 -1.015625 4.8125q-1.015625 2.3125 -2.71875 4.09375q-1.703125 1.765625 -3.96875 2.859375q-2.25 1.078125 -4.734375 1.078125zm0.515625 -2.40625q1.6875 0 3.328125 -0.8125q1.640625 -0.828125 2.921875 -2.203125q1.28125 -1.390625 2.078125 -3.203125q0.796875 -1.828125 0.796875 -3.859375q0 -1.40625 -0.40625 -2.640625q-0.390625 -1.234375 -1.140625 -2.140625q-0.734375 -0.90625 -1.75 -1.421875q-1.015625 -0.515625 -2.265625 -0.515625q-1.671875 0 -3.296875 0.828125q-1.625 0.8125 -2.921875 2.21875q-1.296875 1.390625 -2.09375 3.234375q-0.796875 1.828125 -0.796875 3.875q0 1.40625 0.390625 2.625q0.40625 1.21875 1.140625 2.125q0.75 0.890625 1.765625 1.390625q1.015625 0.5 2.25 0.5zm18.373108 -18.84375l2.515625 0l-1.046875 4.71875q1.6875 -2.359375 3.9375 -3.71875q2.265625 -1.359375 4.625 -1.359375q2.40625 0 3.578125 1.421875q1.1875 1.421875 1.1875 4.015625q1.75 -2.671875 4.046875 -4.046875q2.3125 -1.390625 4.703125 -1.390625q2.53125 0 3.578125 1.359375q1.0625 1.359375 1.0625 3.765625q0 1.71875 -0.46875 3.875l-2.609375 12.203125l-2.71875 0l2.4375 -11.640625q0.203125 -0.921875 0.296875 -1.734375q0.109375 -0.828125 0.109375 -1.5q0 -3.84375 -3.15625 -3.84375q-1.125 0 -2.234375 0.4375q-1.09375 0.4375 -2.09375 1.25q-1.0 0.796875 -1.859375 1.890625q-0.859375 1.09375 -1.5 2.421875l-2.671875 12.71875l-2.71875 0l2.4375 -11.640625q0.203125 -1.0 0.3125 -1.8125q0.125 -0.828125 0.125 -1.5q0 -3.765625 -3.15625 -3.765625q-2.25 0 -4.328125 1.640625q-2.078125 1.640625 -3.390625 4.3125l-2.6875 12.765625l-2.71875 0l4.40625 -20.84375zm35.151184 0l2.40625 0l-0.84375 4.046875q1.59375 -1.96875 3.796875 -3.1875q2.203125 -1.21875 4.484375 -1.21875q1.71875 0 3.09375 0.71875q1.390625 0.71875 2.34375 1.921875q0.96875 1.203125 1.46875 2.8125q0.5 1.59375 0.5 3.3125q0 2.4375 -0.921875 4.765625q-0.921875 2.3125 -2.53125 4.109375q-1.59375 1.796875 -3.703125 2.890625q-2.09375 1.078125 -4.40625 1.078125q-2.53125 0 -4.15625 -1.34375q-1.609375 -1.34375 -2.328125 -3.375l-2.71875 12.828125l-2.71875 0l6.234375 -29.359375zm5.4375 18.84375q1.8125 0 3.4375 -0.890625q1.640625 -0.90625 2.859375 -2.328125q1.234375 -1.421875 1.953125 -3.203125q0.71875 -1.78125 0.71875 -3.578125q0 -1.40625 -0.40625 -2.640625q-0.390625 -1.234375 -1.15625 -2.15625q-0.765625 -0.921875 -1.8125 -1.453125q-1.03125 -0.546875 -2.34375 -0.546875q-0.96875 0 -2.109375 0.421875q-1.140625 0.421875 -2.21875 1.125q-1.078125 0.6875 -1.9375 1.625q-0.859375 0.9375 -1.265625 1.984375l-1.359375 6.40625q0.203125 1.109375 0.703125 2.078125q0.5 0.953125 1.234375 1.65625q0.75 0.703125 1.6875 1.109375q0.9375 0.390625 2.015625 0.390625zm18.25122 -18.84375l2.71875 0l-4.40625 20.84375l-2.71875 0l4.40625 -20.84375zm1.796875 -8.359375l2.71875 0l-0.84375 4.0l-2.71875 0l0.84375 -4.0zm6.2387695 29.4375q-1.484375 0 -2.328125 -0.75q-0.828125 -0.765625 -0.828125 -2.171875q0 -0.234375 0.03125 -0.515625q0.046875 -0.28125 0.125 -0.59375l5.359375 -25.40625l2.71875 0l-5.203125 24.484375q-0.03125 0.203125 -0.0625 0.359375q-0.015625 0.15625 -0.015625 0.359375q0 1.765625 1.875 1.765625q0.453125 0 1.046875 -0.125q0.59375 -0.125 1.15625 -0.328125l-0.078125 2.203125q-0.796875 0.328125 -1.90625 0.515625q-1.09375 0.203125 -1.890625 0.203125zm15.325623 0.171875q-1.921875 0 -3.421875 -0.671875q-1.5 -0.6875 -2.53125 -1.890625q-1.015625 -1.203125 -1.5625 -2.796875q-0.53125 -1.609375 -0.53125 -3.453125q0 -2.46875 0.953125 -4.765625q0.96875 -2.3125 2.640625 -4.09375q1.6875 -1.78125 3.984375 -2.859375q2.296875 -1.078125 4.984375 -1.078125q1.359375 0 2.578125 0.359375q1.21875 0.359375 2.109375 1.0625q0.90625 0.703125 1.421875 1.765625q0.53125 1.0625 0.53125 2.421875q0 3.078125 -2.71875 4.640625q-2.71875 1.546875 -8.40625 1.546875q-1.125 0 -2.421875 -0.03125q-1.296875 -0.046875 -2.8125 -0.15625q-0.046875 0.3125 -0.0625 0.59375q-0.015625 0.28125 -0.015625 0.5625q0 1.359375 0.359375 2.578125q0.359375 1.21875 1.078125 2.15625q0.71875 0.9375 1.796875 1.484375q1.078125 0.53125 2.515625 0.53125q0.96875 0 1.96875 -0.265625q1.0 -0.28125 1.890625 -0.78125q0.90625 -0.5 1.65625 -1.21875q0.765625 -0.734375 1.28125 -1.609375l2.25 0.6875q-0.71875 1.15625 -1.765625 2.140625q-1.03125 0.96875 -2.296875 1.671875q-1.265625 0.703125 -2.640625 1.078125q-1.375 0.390625 -2.8125 0.390625zm4.234375 -19.484375q-1.796875 0 -3.28125 0.640625q-1.484375 0.640625 -2.640625 1.6875q-1.15625 1.03125 -1.96875 2.390625q-0.796875 1.359375 -1.1875 2.796875q1.4375 0.078125 2.65625 0.140625q1.21875 0.0625 2.34375 0.0625q2.359375 0 4.0 -0.3125q1.640625 -0.328125 2.640625 -0.890625q1.0 -0.5625 1.4375 -1.359375q0.4375 -0.796875 0.4375 -1.71875q0 -1.796875 -1.328125 -2.609375q-1.3125 -0.828125 -3.109375 -0.828125zm12.84436 -1.765625l2.546875 0l-1.078125 5.0q1.5625 -2.28125 3.546875 -3.609375q1.984375 -1.34375 4.015625 -1.421875q0.328125 0 0.546875 0.015625q0.21875 0.015625 0.421875 0.0625l-0.53125 2.359375q-2.59375 0.078125 -4.84375 1.515625q-2.234375 1.4375 -3.59375 3.96875l-2.71875 12.953125l-2.71875 0l4.40625 -20.84375z" fill-rule="nonzero"/><path fill="#000000" fill-opacity="0.0" d="m240.0 103.84252l233.66928 0l0 63.84252l-233.66928 0z" fill-rule="evenodd"/><path fill="#000000" d="m292.73358 138.70815q-1.28125 0 -2.28125 -0.453125q-1.0 -0.453125 -1.6875 -1.25q-0.671875 -0.796875 -1.03125 -1.859375q-0.359375 -1.078125 -0.359375 -2.296875q0 -1.65625 0.640625 -3.1875q0.640625 -1.53125 1.75 -2.71875q1.125 -1.1875 2.65625 -1.90625q1.53125 -0.71875 3.3125 -0.71875q0.90625 0 1.71875 0.25q0.8125 0.234375 1.40625 0.703125q0.609375 0.453125 0.953125 1.171875q0.359375 0.703125 0.359375 1.609375q0 2.046875 -1.8125 3.09375q-1.8125 1.03125 -5.609375 1.03125q-0.75 0 -1.609375 -0.015625q-0.859375 -0.03125 -1.875 -0.109375q-0.03125 0.203125 -0.046875 0.390625q-0.015625 0.1875 -0.015625 0.375q0 0.90625 0.234375 1.71875q0.25 0.8125 0.71875 1.4375q0.484375 0.625 1.203125 0.984375q0.734375 0.359375 1.6875 0.359375q0.640625 0 1.296875 -0.1875q0.671875 -0.1875 1.265625 -0.515625q0.609375 -0.328125 1.109375 -0.8125q0.515625 -0.484375 0.859375 -1.0625l1.5 0.453125q-0.484375 0.765625 -1.1875 1.421875q-0.6875 0.65625 -1.53125 1.125q-0.828125 0.46875 -1.75 0.71875q-0.921875 0.25 -1.875 0.25zm2.8125 -12.984375q-1.1875 0 -2.1875 0.4375q-0.984375 0.421875 -1.765625 1.125q-0.765625 0.6875 -1.296875 1.59375q-0.53125 0.90625 -0.796875 1.859375q0.96875 0.046875 1.78125 0.09375q0.8125 0.03125 1.546875 0.03125q1.578125 0 2.671875 -0.203125q1.09375 -0.21875 1.75 -0.59375q0.671875 -0.375 0.96875 -0.90625q0.296875 -0.53125 0.296875 -1.140625q0 -1.203125 -0.890625 -1.75q-0.875 -0.546875 -2.078125 -0.546875zm5.4375 12.71875l0.5625 -2.609375l1.546875 0l-0.5625 2.609375l-1.546875 0zm9.355103 5.9375q-1.140625 0 -2.0 -0.234375q-0.84375 -0.21875 -1.484375 -0.625q-0.640625 -0.390625 -1.078125 -0.984375q-0.4375 -0.578125 -0.703125 -1.296875l1.28125 -0.875q0.5 1.328125 1.640625 1.953125q1.15625 0.625 2.640625 0.625q0.96875 0 1.875 -0.28125q0.90625 -0.28125 1.65625 -0.828125q0.765625 -0.53125 1.3125 -1.375q0.546875 -0.84375 0.78125 -1.96875l0.59375 -2.734375q-0.515625 0.65625 -1.15625 1.203125q-0.640625 0.53125 -1.359375 0.90625q-0.71875 0.359375 -1.46875 0.5625q-0.734375 0.203125 -1.453125 0.203125q-1.15625 0 -2.046875 -0.46875q-0.890625 -0.46875 -1.515625 -1.25q-0.625 -0.78125 -0.953125 -1.8125q-0.3125 -1.046875 -0.3125 -2.203125q0 -1.625 0.640625 -3.171875q0.640625 -1.546875 1.71875 -2.734375q1.078125 -1.203125 2.484375 -1.9375q1.421875 -0.734375 3.0 -0.734375q1.703125 0 2.734375 0.890625q1.046875 0.890625 1.65625 2.25l0.609375 -2.90625l1.609375 0l-2.96875 13.9375q-0.3125 1.46875 -1.0625 2.578125q-0.75 1.109375 -1.796875 1.84375q-1.03125 0.734375 -2.28125 1.09375q-1.25 0.375 -2.59375 0.375zm1.921875 -7.265625q0.75 0 1.546875 -0.296875q0.796875 -0.296875 1.484375 -0.78125q0.703125 -0.5 1.234375 -1.109375q0.53125 -0.609375 0.78125 -1.25l0.90625 -4.296875q-0.109375 -0.75 -0.453125 -1.390625q-0.34375 -0.640625 -0.84375 -1.09375q-0.5 -0.453125 -1.140625 -0.71875q-0.625 -0.265625 -1.328125 -0.265625q-1.25 0 -2.34375 0.625q-1.09375 0.609375 -1.90625 1.578125q-0.8125 0.96875 -1.28125 2.15625q-0.46875 1.1875 -0.46875 2.328125q0 0.9375 0.265625 1.75q0.265625 0.8125 0.765625 1.4375q0.515625 0.609375 1.21875 0.96875q0.71875 0.359375 1.5625 0.359375zm9.514832 1.328125l0.5625 -2.609375l1.546875 0l-0.5625 2.609375l-1.546875 0z" fill-rule="nonzero"/><path fill="#000000" d="m342.47098 138.70815q-1.765625 0 -3.109375 -0.890625q-1.34375 -0.890625 -2.171875 -2.25l0 8.546875l-1.8125 0l0 -19.5625l1.625 0l0 2.6875q0.859375 -1.296875 2.21875 -2.109375q1.359375 -0.8125 2.953125 -0.8125q1.4375 0 2.640625 0.609375q1.203125 0.59375 2.078125 1.59375q0.875 1.0 1.359375 2.3125q0.5 1.296875 0.5 2.671875q0 1.46875 -0.453125 2.78125q-0.453125 1.296875 -1.296875 2.296875q-0.828125 0.984375 -2.0 1.5625q-1.15625 0.5625 -2.53125 0.5625zm-0.515625 -1.59375q1.125 0 2.046875 -0.484375q0.921875 -0.484375 1.5625 -1.265625q0.65625 -0.78125 1.0 -1.78125q0.359375 -1.0 0.359375 -2.078125q0 -1.109375 -0.40625 -2.125q-0.40625 -1.015625 -1.09375 -1.78125q-0.6875 -0.78125 -1.640625 -1.234375q-0.9375 -0.453125 -2.03125 -0.453125q-0.703125 0 -1.46875 0.28125q-0.75 0.28125 -1.40625 0.75q-0.65625 0.46875 -1.125 1.09375q-0.453125 0.625 -0.5625 1.3125l0 4.265625q0.3125 0.75 0.8125 1.390625q0.5 0.640625 1.125 1.109375q0.625 0.46875 1.34375 0.734375q0.71875 0.265625 1.484375 0.265625zm13.353088 1.59375q-0.984375 0 -1.828125 -0.328125q-0.828125 -0.34375 -1.453125 -0.921875q-0.625 -0.59375 -0.984375 -1.375q-0.34375 -0.78125 -0.34375 -1.6875q0 -0.90625 0.421875 -1.671875q0.4375 -0.78125 1.203125 -1.34375q0.78125 -0.5625 1.84375 -0.859375q1.0625 -0.3125 2.34375 -0.3125q1.0625 0 2.15625 0.1875q1.09375 0.1875 1.953125 0.53125l0 -1.25q0 -1.84375 -1.046875 -2.921875q-1.03125 -1.078125 -2.875 -1.078125q-1.0625 0 -2.1875 0.421875q-1.109375 0.421875 -2.265625 1.234375l-0.640625 -1.203125q2.703125 -1.8125 5.234375 -1.8125q2.609375 0 4.09375 1.46875q1.5 1.453125 1.5 4.046875l0 6.265625q0 0.75 0.671875 0.75l0 1.59375q-0.453125 0.078125 -0.703125 0.078125q-0.6875 0 -1.078125 -0.34375q-0.390625 -0.34375 -0.40625 -0.953125l-0.0625 -1.09375q-0.953125 1.25 -2.40625 1.921875q-1.453125 0.65625 -3.140625 0.65625zm0.4375 -1.390625q1.40625 0 2.59375 -0.53125q1.1875 -0.53125 1.796875 -1.40625q0.25 -0.25 0.359375 -0.515625q0.125 -0.28125 0.125 -0.53125l0 -2.265625q-0.90625 -0.34375 -1.890625 -0.53125q-0.96875 -0.1875 -1.96875 -0.1875q-1.921875 0 -3.125 0.8125q-1.203125 0.796875 -1.203125 2.09375q0 0.640625 0.25 1.203125q0.265625 0.5625 0.703125 0.984375q0.4375 0.40625 1.046875 0.640625q0.609375 0.234375 1.3125 0.234375zm22.277618 1.125l-1.8125 0l0 -7.75q0 -2.484375 -0.734375 -3.59375q-0.734375 -1.125 -2.25 -1.125q-0.796875 0 -1.59375 0.296875q-0.796875 0.28125 -1.484375 0.8125q-0.671875 0.53125 -1.21875 1.265625q-0.53125 0.734375 -0.765625 1.59375l0 8.5l-1.8125 0l0 -13.890625l1.65625 0l0 3.140625q0.84375 -1.515625 2.421875 -2.4375q1.59375 -0.9375 3.46875 -0.9375q1.140625 0 1.9375 0.421875q0.796875 0.421875 1.28125 1.203125q0.484375 0.765625 0.6875 1.890625q0.21875 1.125 0.21875 2.484375l0 8.125zm9.571777 0.265625q-1.4375 0 -2.671875 -0.59375q-1.21875 -0.609375 -2.109375 -1.59375q-0.875 -0.984375 -1.375 -2.265625q-0.484375 -1.296875 -0.484375 -2.71875q0 -1.46875 0.484375 -2.78125q0.484375 -1.328125 1.3125 -2.3125q0.84375 -0.984375 2.0 -1.546875q1.171875 -0.578125 2.546875 -0.578125q1.765625 0 3.125 0.921875q1.359375 0.921875 2.125 2.21875l0 -8.46875l1.8125 0l0 17.109375q0 0.75 0.640625 0.75l0 1.59375q-0.390625 0.078125 -0.640625 0.078125q-0.640625 0 -1.125 -0.40625q-0.46875 -0.421875 -0.46875 -1.0l0 -1.359375q-0.828125 1.359375 -2.25 2.15625q-1.40625 0.796875 -2.921875 0.796875zm0.40625 -1.59375q0.65625 0 1.421875 -0.265625q0.765625 -0.265625 1.421875 -0.734375q0.671875 -0.46875 1.140625 -1.09375q0.46875 -0.625 0.5625 -1.34375l0 -4.296875q-0.265625 -0.71875 -0.78125 -1.34375q-0.5 -0.625 -1.15625 -1.109375q-0.640625 -0.484375 -1.390625 -0.75q-0.75 -0.265625 -1.46875 -0.265625q-1.109375 0 -2.015625 0.484375q-0.90625 0.484375 -1.5625 1.265625q-0.65625 0.78125 -1.0 1.796875q-0.34375 1.015625 -0.34375 2.078125q0 1.125 0.390625 2.140625q0.40625 1.0 1.09375 1.765625q0.703125 0.765625 1.640625 1.21875q0.953125 0.453125 2.046875 0.453125zm16.39264 1.59375q-1.53125 0 -2.78125 -0.5625q-1.25 -0.578125 -2.171875 -1.5625q-0.921875 -1.0 -1.421875 -2.296875q-0.5 -1.3125 -0.5 -2.75q0 -1.46875 0.515625 -2.765625q0.515625 -1.3125 1.4375 -2.296875q0.921875 -0.984375 2.171875 -1.5625q1.25 -0.59375 2.75 -0.59375q1.484375 0 2.75 0.59375q1.265625 0.578125 2.1875 1.5625q0.921875 0.984375 1.4375 2.296875q0.53125 1.296875 0.53125 2.765625q0 1.4375 -0.515625 2.75q-0.5 1.296875 -1.421875 2.296875q-0.921875 0.984375 -2.1875 1.5625q-1.265625 0.5625 -2.78125 0.5625zm-5.046875 -7.140625q0 1.171875 0.390625 2.171875q0.40625 1.0 1.078125 1.765625q0.6875 0.75 1.609375 1.1875q0.921875 0.421875 1.96875 0.421875q1.03125 0 1.953125 -0.4375q0.921875 -0.453125 1.609375 -1.203125q0.703125 -0.765625 1.09375 -1.765625q0.40625 -1.015625 0.40625 -2.203125q0 -1.140625 -0.40625 -2.15625q-0.390625 -1.03125 -1.09375 -1.796875q-0.6875 -0.765625 -1.609375 -1.203125q-0.921875 -0.4375 -1.953125 -0.4375q-1.046875 0 -1.953125 0.4375q-0.90625 0.4375 -1.609375 1.21875q-0.6875 0.765625 -1.09375 1.796875q-0.390625 1.03125 -0.390625 2.203125zm14.032288 -0.109375q0 -1.46875 0.5 -2.765625q0.5 -1.3125 1.421875 -2.28125q0.921875 -0.984375 2.203125 -1.53125q1.28125 -0.5625 2.828125 -0.5625q1.96875 0 3.4375 0.890625q1.46875 0.890625 2.203125 2.40625l-1.75 0.5625q-0.59375 -1.0625 -1.640625 -1.65625q-1.046875 -0.609375 -2.328125 -0.609375q-1.078125 0 -2.0 0.4375q-0.90625 0.421875 -1.59375 1.15625q-0.671875 0.734375 -1.0625 1.75q-0.390625 1.0 -0.390625 2.203125q0 1.171875 0.390625 2.21875q0.40625 1.03125 1.09375 1.796875q0.703125 0.75 1.625 1.203125q0.921875 0.4375 1.953125 0.4375q0.671875 0 1.328125 -0.1875q0.65625 -0.1875 1.203125 -0.515625q0.5625 -0.34375 0.953125 -0.765625q0.40625 -0.421875 0.578125 -0.90625l1.78125 0.53125q-0.296875 0.75 -0.859375 1.375q-0.546875 0.625 -1.3125 1.09375q-0.765625 0.46875 -1.6875 0.71875q-0.90625 0.25 -1.890625 0.25q-1.53125 0 -2.8125 -0.5625q-1.28125 -0.578125 -2.21875 -1.578125q-0.921875 -1.0 -1.4375 -2.296875q-0.515625 -1.3125 -0.515625 -2.8125z" fill-rule="nonzero"/></g></svg>