<svg version="1.1" viewBox="0.0 0.0 960.0 248.31496062992127" fill="none" stroke="none" stroke-linecap="square" stroke-miterlimit="10" xmlns:xlink="http://www.w3.org/1999/xlink" xmlns="http://www.w3.org/2000/svg"><clipPath id="p.0"><path d="m0 0l960.0 0l0 248.31496l-960.0 0l0 -248.31496z" clip-rule="nonzero"/></clipPath><g clip-path="url(#p.0)"><path fill="#000000" fill-opacity="0.0" d="m0 0l960.0 0l0 248.31496l-960.0 0z" fill-rule="evenodd"/><path fill="#000000" fill-opacity="0.0" d="m398.7954 63.842518l214.36218 0l0 63.842518l-214.36218 0z" fill-rule="evenodd"/><path fill="#000000" d="m411.3423 79.84564l5.171875 0l6.671875 30.65625l6.71875 -30.65625l5.140625 0l0.703125 37.796875l-4.25 0l-0.421875 -27.4375l-6.390625 27.4375l-2.984375 0l-6.34375 -27.4375l-0.421875 27.4375l-4.296875 0l0.703125 -37.796875zm34.621155 38.171875q-1.546875 0 -2.78125 -0.890625q-1.234375 -0.890625 -1.9375 -2.328125q-0.703125 -1.453125 -0.703125 -3.03125q0 -3.171875 1.359375 -5.15625q1.359375 -1.984375 3.453125 -3.140625q2.09375 -1.171875 5.828125 -2.671875l0 -1.90625q0 -2.671875 -0.53125 -3.765625q-0.53125 -1.09375 -2.171875 -1.09375q-2.84375 0 -2.84375 3.828125l0 1.359375l-4.953125 -0.1875q0.09375 -4.484375 2.046875 -6.609375q1.96875 -2.125 6.078125 -2.125q3.875 0 5.625 2.125q1.75 2.125 1.75 6.421875l0 12.3125q0 3.03125 0.46875 6.484375l-4.578125 0q-0.515625 -2.65625 -0.65625 -3.96875q-0.5625 1.828125 -1.9375 3.09375q-1.375 1.25 -3.515625 1.25zm1.953125 -4.296875q0.984375 0 1.90625 -0.765625q0.9375 -0.765625 1.359375 -1.46875l0 -7.65625q-2.0 1.125 -3.109375 1.9375q-1.09375 0.8125 -1.8125 1.890625q-0.71875 1.078125 -0.71875 2.5625q0 1.6875 0.609375 2.59375q0.609375 0.90625 1.765625 0.90625zm13.203644 -23.046875l5.0 0l0 3.828125q1.390625 -2.28125 2.859375 -3.21875q1.46875 -0.9375 3.109375 -0.9375q0.421875 0 0.796875 0.046875l0 5.515625q-1.5 -0.5625 -2.765625 -0.5625q-1.203125 0 -2.171875 0.578125q-0.953125 0.578125 -1.828125 2.03125l0 19.6875l-5.0 0l0 -26.96875zm14.929749 -10.875l5.0 0l0 22.546875l7.28125 -11.671875l5.21875 0l-6.34375 10.546875l6.15625 16.421875l-4.984375 0l-5.046875 -13.8125l-2.28125 3.453125l0 10.3125l-5.0 0l0 -37.796875zm26.171753 38.21875q-3.5 0 -5.140625 -2.546875q-1.625 -2.546875 -1.625 -8.421875l0 -5.21875q0 -5.375 1.421875 -8.453125q1.4375 -3.078125 5.203125 -3.078125q2.390625 0 4.484375 2.109375l0 -12.5625l5.0 0l0 37.796875l-5.0 0l0 -1.71875q-1.953125 2.09375 -4.34375 2.09375zm1.265625 -3.921875q1.5 0 3.078125 -1.03125l0 -17.671875q-1.71875 -1.171875 -3.171875 -1.171875q-2.9375 0 -2.9375 5.640625l0 7.609375q0 3.265625 0.609375 4.953125q0.609375 1.671875 2.421875 1.671875zm20.528229 3.921875q-4.296875 0 -6.09375 -2.546875q-1.796875 -2.546875 -1.796875 -7.390625l0 -7.84375q0 -4.84375 1.796875 -7.390625q1.796875 -2.546875 6.09375 -2.546875q4.25 0 6.046875 2.546875q1.796875 2.546875 1.796875 7.390625l0 7.84375q0 4.84375 -1.796875 7.390625q-1.796875 2.546875 -6.046875 2.546875zm0 -3.6875q1.359375 0 1.953125 -0.796875q0.609375 -0.796875 0.75 -1.953125q0.140625 -1.171875 0.140625 -3.171875l0 -8.453125q0 -2.0 -0.140625 -3.1875q-0.140625 -1.1875 -0.75 -1.984375q-0.59375 -0.796875 -1.953125 -0.796875q-1.359375 0 -1.984375 0.796875q-0.625 0.796875 -0.765625 1.984375q-0.140625 1.1875 -0.140625 3.1875l0 8.453125q0 2.0 0.140625 3.171875q0.140625 1.15625 0.765625 1.953125q0.625 0.796875 1.984375 0.796875zm11.203857 -23.65625l4.09375 0l2.8125 19.875l3.578125 -19.875l3.828125 0l3.59375 19.78125l2.796875 -19.78125l4.109375 0l-4.46875 26.96875l-4.203125 0l-3.6875 -19.03125l-3.640625 19.03125l-4.484375 0l-4.328125 -26.96875zm28.636963 0l5.0 0l0 2.65625q3.21875 -3.03125 6.578125 -3.03125q2.1875 0 3.125 1.59375q0.9375 1.578125 0.9375 3.921875l0 21.828125l-5.0 0l0 -20.390625q0 -1.53125 -0.46875 -2.28125q-0.46875 -0.75 -1.671875 -0.75q-1.5 0 -3.5 1.6875l0 21.734375l-5.0 0l0 -26.96875z" fill-rule="nonzero"/><path fill="#000000" fill-opacity="0.0" d="m598.6981 106.2126l214.36224 0" fill-rule="evenodd"/><path stroke="#000000" stroke-width="3.0" stroke-linejoin="round" stroke-linecap="butt" d="m598.6981 106.2126l196.36224 0" fill-rule="evenodd"/><path fill="#000000" stroke="#000000" stroke-width="3.0" stroke-linecap="butt" d="m795.06036 111.16779l13.614319 -4.9551926l-13.614319 -4.9552z" fill-rule="evenodd"/><path fill="#000000" fill-opacity="0.0" d="m831.41705 0l332.9134 0l0 63.842518l-332.9134 0z" fill-rule="evenodd"/><path fill="#000000" d="m843.35455 16.003124l5.28125 0l0 16.328125l9.703125 0l0 -16.328125l5.265625 0l0 37.796875l-5.265625 0l0 -17.6875l-9.703125 0l0 17.6875l-5.28125 0l0 -37.796875zm30.330322 3.921875l-6.390625 0l0 -3.921875l17.859375 0l0 3.921875l-6.203125 0l0 33.875l-5.265625 0l0 -33.875zm15.722107 -3.921875l5.171875 0l6.671875 30.65625l6.71875 -30.65625l5.140625 0l0.703125 37.796875l-4.25 0l-0.421875 -27.4375l-6.390625 27.4375l-2.984375 0l-6.34375 -27.4375l-0.421875 27.4375l-4.296875 0l0.703125 -37.796875zm30.183655 0l5.28125 0l0 34.015625l9.65625 0l0 3.78125l-14.9375 0l0 -37.796875z" fill-rule="nonzero"/><path fill="#000000" fill-opacity="0.0" d="m831.41705 63.842518l332.9134 0l0 63.842518l-332.9134 0z" fill-rule="evenodd"/><path fill="#000000" d="m843.35455 79.84564l9.375 0q4.90625 0 7.125 2.671875q2.21875 2.65625 2.21875 7.78125q0 4.625 -2.390625 7.1875q-2.375 2.5625 -6.90625 2.5625l-4.140625 0l0 17.59375l-5.28125 0l0 -37.796875zm7.703125 16.421875q2.328125 0 3.609375 -0.5q1.28125 -0.515625 1.84375 -1.78125q0.5625 -1.265625 0.5625 -3.640625q0 -2.890625 -0.421875 -4.234375q-0.421875 -1.359375 -1.65625 -1.921875q-1.234375 -0.5625 -3.890625 -0.5625l-2.46875 0l0 12.640625l2.421875 0zm14.6918335 -16.421875l8.21875 0q6.109375 0 8.640625 2.8125q2.546875 2.796875 2.546875 8.71875l0 13.90625q0 6.25 -2.5 9.3125q-2.484375 3.046875 -8.265625 3.046875l-8.640625 0l0 -37.796875zm8.265625 34.015625q2.75 0 3.984375 -1.0625q1.234375 -1.078125 1.53125 -2.921875q0.3125 -1.84375 0.3125 -5.578125l0 -12.265625q0 -3.21875 -0.40625 -4.921875q-0.390625 -1.703125 -1.65625 -2.515625q-1.25 -0.828125 -3.90625 -0.828125l-2.84375 0l0 30.09375l2.984375 0zm16.322144 -34.015625l14.609375 0l0 3.78125l-9.328125 0l0 12.59375l7.21875 0l0 3.734375l-7.21875 0l0 17.6875l-5.28125 0l0 -37.796875z" fill-rule="nonzero"/><path fill="#000000" fill-opacity="0.0" d="m831.41705 127.685036l332.9134 0l0 63.84252l-332.9134 0z" fill-rule="evenodd"/><path fill="#000000" d="m842.0889 143.68816l4.390625 0l4.0625 27.15625l5.078125 -27.015625l3.734375 0l5.140625 27.15625l3.96875 -27.296875l4.28125 0l-6.0625 37.796875l-3.828125 0l-5.265625 -28.0l-5.328125 28.0l-4.0 0l-6.171875 -37.796875zm42.277954 38.171875q-4.296875 0 -6.09375 -2.546875q-1.796875 -2.546875 -1.796875 -7.390625l0 -7.84375q0 -4.84375 1.796875 -7.390625q1.796875 -2.546875 6.09375 -2.546875q4.25 0 6.046875 2.546875q1.796875 2.546875 1.796875 7.390625l0 7.84375q0 4.84375 -1.796875 7.390625q-1.796875 2.546875 -6.046875 2.546875zm0 -3.6875q1.359375 0 1.953125 -0.796875q0.609375 -0.796875 0.75 -1.953125q0.140625 -1.171875 0.140625 -3.171875l0 -8.453125q0 -2.0 -0.140625 -3.1875q-0.140625 -1.1875 -0.75 -1.984375q-0.59375 -0.796875 -1.953125 -0.796875q-1.359375 0 -1.984375 0.796875q-0.625 0.796875 -0.765625 1.984375q-0.140625 1.1875 -0.140625 3.1875l0 8.453125q0 2.0 0.140625 3.171875q0.140625 1.15625 0.765625 1.953125q0.625 0.796875 1.984375 0.796875zm12.547607 -23.65625l5.0 0l0 3.828125q1.390625 -2.28125 2.859375 -3.21875q1.46875 -0.9375 3.109375 -0.9375q0.421875 0 0.796875 0.046875l0 5.515625q-1.5 -0.5625 -2.765625 -0.5625q-1.203125 0 -2.171875 0.578125q-0.953125 0.578125 -1.828125 2.03125l0 19.6875l-5.0 0l0 -26.96875zm21.085999 27.34375q-3.5 0 -5.140625 -2.546875q-1.625 -2.546875 -1.625 -8.421875l0 -5.21875q0 -5.375 1.421875 -8.453125q1.4375 -3.078125 5.203125 -3.078125q2.390625 0 4.484375 2.109375l0 -12.5625l5.0 0l0 37.796875l-5.0 0l0 -1.71875q-1.953125 2.09375 -4.34375 2.09375zm1.265625 -3.921875q1.5 0 3.078125 -1.03125l0 -17.671875q-1.71875 -1.171875 -3.171875 -1.171875q-2.9375 0 -2.9375 5.640625l0 7.609375q0 3.265625 0.609375 4.953125q0.609375 1.671875 2.421875 1.671875z" fill-rule="nonzero"/><path fill="#000000" fill-opacity="0.0" d="m598.6987 48.0l212.47241 0l0 63.84252l-212.47241 0z" fill-rule="evenodd"/><path fill="#000000" d="m646.9828 89.328125q-1.53125 0 -2.765625 -0.578125q-1.234375 -0.578125 -2.09375 -1.578125q-0.84375 -1.0 -1.296875 -2.328125q-0.453125 -1.34375 -0.453125 -2.84375q0 -2.09375 0.828125 -4.03125q0.84375 -1.9375 2.25 -3.421875q1.421875 -1.484375 3.296875 -2.34375q1.890625 -0.859375 4.03125 -0.859375q2.359375 0 3.875 1.109375q1.515625 1.109375 1.984375 3.015625l-2.328125 0.703125q-0.40625 -1.34375 -1.46875 -2.09375q-1.0625 -0.75 -2.5625 -0.75q-1.46875 0 -2.828125 0.671875q-1.34375 0.671875 -2.40625 1.8125q-1.0625 1.125 -1.703125 2.65625q-0.625 1.53125 -0.625 3.234375q0 1.203125 0.328125 2.21875q0.328125 1.015625 0.921875 1.78125q0.609375 0.765625 1.453125 1.203125q0.859375 0.421875 1.890625 0.421875q0.796875 0 1.609375 -0.234375q0.828125 -0.234375 1.5625 -0.640625q0.734375 -0.421875 1.3125 -0.953125q0.578125 -0.53125 0.875 -1.125l2.109375 0.65625q-0.53125 0.9375 -1.375 1.71875q-0.828125 0.78125 -1.859375 1.375q-1.03125 0.578125 -2.203125 0.890625q-1.171875 0.3125 -2.359375 0.3125zm17.421204 0q-1.53125 0 -2.75 -0.578125q-1.21875 -0.578125 -2.046875 -1.5625q-0.828125 -0.984375 -1.28125 -2.296875q-0.453125 -1.328125 -0.453125 -2.828125q0 -2.09375 0.84375 -4.015625q0.859375 -1.9375 2.28125 -3.421875q1.4375 -1.484375 3.296875 -2.375q1.875 -0.90625 3.953125 -0.90625q1.53125 0 2.71875 0.578125q1.203125 0.578125 2.046875 1.5625q0.859375 0.984375 1.3125 2.328125q0.453125 1.328125 0.453125 2.828125q0 2.0625 -0.859375 4.0q-0.84375 1.921875 -2.265625 3.40625q-1.40625 1.484375 -3.296875 2.390625q-1.875 0.890625 -3.953125 0.890625zm0.4375 -2.0q1.40625 0 2.765625 -0.671875q1.359375 -0.6875 2.421875 -1.828125q1.078125 -1.15625 1.734375 -2.671875q0.671875 -1.515625 0.671875 -3.21875q0 -1.171875 -0.328125 -2.203125q-0.328125 -1.03125 -0.953125 -1.78125q-0.609375 -0.75 -1.46875 -1.1875q-0.84375 -0.4375 -1.875 -0.4375q-1.40625 0 -2.765625 0.6875q-1.34375 0.6875 -2.421875 1.859375q-1.078125 1.15625 -1.75 2.6875q-0.65625 1.53125 -0.65625 3.234375q0 1.171875 0.328125 2.1875q0.328125 1.015625 0.9375 1.765625q0.625 0.75 1.46875 1.171875q0.859375 0.40625 1.890625 0.40625zm15.30011 -15.6875l2.09375 0l-0.859375 3.921875q1.390625 -1.953125 3.265625 -3.078125q1.890625 -1.140625 3.859375 -1.140625q2.0 0 2.984375 1.1875q0.984375 1.171875 0.984375 3.34375q1.46875 -2.234375 3.375 -3.375q1.921875 -1.15625 3.921875 -1.15625q2.109375 0 2.984375 1.140625q0.890625 1.125 0.890625 3.125q0 1.421875 -0.40625 3.21875l-2.171875 10.171875l-2.265625 0l2.03125 -9.703125q0.171875 -0.765625 0.25 -1.4375q0.09375 -0.6875 0.09375 -1.25q0 -3.203125 -2.640625 -3.203125q-0.921875 0 -1.84375 0.375q-0.921875 0.359375 -1.75 1.03125q-0.828125 0.65625 -1.546875 1.578125q-0.71875 0.90625 -1.25 2.015625l-2.234375 10.59375l-2.265625 0l2.03125 -9.703125q0.171875 -0.828125 0.265625 -1.5q0.09375 -0.6875 0.09375 -1.265625q0 -3.125 -2.625 -3.125q-1.875 0 -3.609375 1.375q-1.71875 1.359375 -2.828125 3.59375l-2.234375 10.625l-2.265625 0l3.671875 -17.359375zm29.293274 0l2.0 0l-0.703125 3.359375q1.328125 -1.625 3.15625 -2.640625q1.84375 -1.015625 3.75 -1.015625q1.421875 0 2.578125 0.59375q1.15625 0.59375 1.953125 1.59375q0.796875 1.0 1.203125 2.34375q0.421875 1.328125 0.421875 2.765625q0 2.03125 -0.765625 3.96875q-0.765625 1.921875 -2.09375 3.421875q-1.328125 1.5 -3.078125 2.40625q-1.75 0.890625 -3.6875 0.890625q-2.109375 0 -3.453125 -1.109375q-1.34375 -1.125 -1.953125 -2.8125l-2.265625 10.6875l-2.265625 0l5.203125 -24.453125zm4.53125 15.6875q1.5 0 2.859375 -0.75q1.375 -0.75 2.390625 -1.921875q1.015625 -1.1875 1.609375 -2.671875q0.609375 -1.484375 0.609375 -2.984375q0 -1.171875 -0.34375 -2.203125q-0.328125 -1.03125 -0.96875 -1.796875q-0.625 -0.765625 -1.5 -1.21875q-0.859375 -0.453125 -1.953125 -0.453125q-0.796875 0 -1.75 0.359375q-0.953125 0.34375 -1.859375 0.9375q-0.890625 0.578125 -1.609375 1.359375q-0.71875 0.78125 -1.046875 1.65625l-1.140625 5.328125q0.171875 0.9375 0.578125 1.734375q0.421875 0.796875 1.03125 1.390625q0.625 0.578125 1.40625 0.90625q0.78125 0.328125 1.6875 0.328125zm15.20105 -15.6875l2.265625 0l-3.671875 17.359375l-2.265625 0l3.671875 -17.359375zm1.5 -6.96875l2.265625 0l-0.703125 3.328125l-2.265625 0l0.703125 -3.328125zm5.192627 24.53125q-1.234375 0 -1.9375 -0.625q-0.6875 -0.640625 -0.6875 -1.8125q0 -0.203125 0.03125 -0.4375q0.03125 -0.234375 0.09375 -0.5l4.46875 -21.15625l2.265625 0l-4.328125 20.390625q-0.03125 0.171875 -0.046875 0.3125q-0.015625 0.125 -0.015625 0.296875q0 1.46875 1.5625 1.46875q0.359375 0 0.859375 -0.09375q0.5 -0.109375 0.96875 -0.28125l-0.0625 1.828125q-0.671875 0.265625 -1.59375 0.4375q-0.90625 0.171875 -1.578125 0.171875zm12.767334 0.125q-1.59375 0 -2.84375 -0.5625q-1.25 -0.5625 -2.109375 -1.5625q-0.84375 -1.0 -1.296875 -2.328125q-0.453125 -1.34375 -0.453125 -2.875q0 -2.0625 0.796875 -3.96875q0.8125 -1.921875 2.203125 -3.40625q1.40625 -1.484375 3.3125 -2.375q1.921875 -0.90625 4.15625 -0.90625q1.140625 0 2.15625 0.296875q1.015625 0.296875 1.765625 0.890625q0.75 0.578125 1.171875 1.46875q0.4375 0.875 0.4375 2.0q0 2.5625 -2.265625 3.875q-2.265625 1.296875 -7.0 1.296875q-0.9375 0 -2.015625 -0.03125q-1.078125 -0.046875 -2.34375 -0.140625q-0.03125 0.265625 -0.046875 0.5q-0.015625 0.234375 -0.015625 0.46875q0 1.125 0.296875 2.15625q0.296875 1.015625 0.890625 1.796875q0.609375 0.78125 1.5 1.234375q0.90625 0.4375 2.109375 0.4375q0.796875 0 1.625 -0.21875q0.828125 -0.234375 1.578125 -0.65625q0.75 -0.421875 1.390625 -1.015625q0.640625 -0.609375 1.0625 -1.328125l1.875 0.5625q-0.609375 0.96875 -1.484375 1.78125q-0.859375 0.8125 -1.90625 1.40625q-1.046875 0.578125 -2.203125 0.890625q-1.140625 0.3125 -2.34375 0.3125zm3.53125 -16.21875q-1.5 0 -2.734375 0.53125q-1.234375 0.53125 -2.203125 1.40625q-0.953125 0.859375 -1.625 2.0q-0.671875 1.125 -1.0 2.328125q1.203125 0.0625 2.21875 0.109375q1.015625 0.046875 1.953125 0.046875q1.953125 0 3.3125 -0.265625q1.375 -0.265625 2.203125 -0.734375q0.84375 -0.46875 1.203125 -1.125q0.375 -0.671875 0.375 -1.4375q0 -1.5 -1.109375 -2.171875q-1.09375 -0.6875 -2.59375 -0.6875zm10.70343 -1.46875l2.125 0l-0.890625 4.15625q1.296875 -1.890625 2.9375 -3.0q1.65625 -1.125 3.359375 -1.1875q0.265625 0 0.4375 0.015625q0.1875 0.015625 0.359375 0.046875l-0.4375 1.96875q-2.15625 0.0625 -4.03125 1.265625q-1.859375 1.203125 -3.0 3.296875l-2.265625 10.796875l-2.265625 0l3.671875 -17.359375z" fill-rule="nonzero"/><path fill="#000000" fill-opacity="0.0" d="m599.63416 103.84252l212.47241 0l0 63.84252l-212.47241 0z" fill-rule="evenodd"/><path fill="#000000" d="m641.7693 138.70815q-1.28125 0 -2.28125 -0.453125q-1.0 -0.453125 -1.6875 -1.25q-0.671875 -0.796875 -1.03125 -1.859375q-0.359375 -1.078125 -0.359375 -2.296875q0 -1.65625 0.640625 -3.1875q0.640625 -1.53125 1.75 -2.71875q1.125 -1.1875 2.65625 -1.90625q1.53125 -0.71875 3.3125 -0.71875q0.90625 0 1.71875 0.25q0.8125 0.234375 1.40625 0.703125q0.609375 0.453125 0.953125 1.171875q0.359375 0.703125 0.359375 1.609375q0 2.046875 -1.8125 3.09375q-1.8125 1.03125 -5.609375 1.03125q-0.75 0 -1.609375 -0.015625q-0.859375 -0.03125 -1.875 -0.109375q-0.03125 0.203125 -0.046875 0.390625q-0.015625 0.1875 -0.015625 0.375q0 0.90625 0.234375 1.71875q0.25 0.8125 0.71875 1.4375q0.484375 0.625 1.203125 0.984375q0.734375 0.359375 1.6875 0.359375q0.640625 0 1.296875 -0.1875q0.671875 -0.1875 1.265625 -0.515625q0.609375 -0.328125 1.109375 -0.8125q0.515625 -0.484375 0.859375 -1.0625l1.5 0.453125q-0.484375 0.765625 -1.1875 1.421875q-0.6875 0.65625 -1.53125 1.125q-0.828125 0.46875 -1.75 0.71875q-0.921875 0.25 -1.875 0.25zm2.8125 -12.984375q-1.1875 0 -2.1875 0.4375q-0.984375 0.421875 -1.765625 1.125q-0.765625 0.6875 -1.296875 1.59375q-0.53125 0.90625 -0.796875 1.859375q0.96875 0.046875 1.78125 0.09375q0.8125 0.03125 1.546875 0.03125q1.578125 0 2.671875 -0.203125q1.09375 -0.21875 1.75 -0.59375q0.671875 -0.375 0.96875 -0.90625q0.296875 -0.53125 0.296875 -1.140625q0 -1.203125 -0.890625 -1.75q-0.875 -0.546875 -2.078125 -0.546875zm5.4375 12.71875l0.5625 -2.609375l1.546875 0l-0.5625 2.609375l-1.546875 0zm9.355103 5.9375q-1.140625 0 -2.0 -0.234375q-0.84375 -0.21875 -1.484375 -0.625q-0.640625 -0.390625 -1.078125 -0.984375q-0.4375 -0.578125 -0.703125 -1.296875l1.28125 -0.875q0.5 1.328125 1.640625 1.953125q1.15625 0.625 2.640625 0.625q0.96875 0 1.875 -0.28125q0.90625 -0.28125 1.65625 -0.828125q0.765625 -0.53125 1.3125 -1.375q0.546875 -0.84375 0.78125 -1.96875l0.59375 -2.734375q-0.515625 0.65625 -1.15625 1.203125q-0.640625 0.53125 -1.359375 0.90625q-0.71875 0.359375 -1.46875 0.5625q-0.734375 0.203125 -1.453125 0.203125q-1.15625 0 -2.046875 -0.46875q-0.890625 -0.46875 -1.515625 -1.25q-0.625 -0.78125 -0.953125 -1.8125q-0.3125 -1.046875 -0.3125 -2.203125q0 -1.625 0.640625 -3.171875q0.640625 -1.546875 1.71875 -2.734375q1.078125 -1.203125 2.484375 -1.9375q1.421875 -0.734375 3.0 -0.734375q1.703125 0 2.734375 0.890625q1.046875 0.890625 1.65625 2.25l0.609375 -2.90625l1.609375 0l-2.96875 13.9375q-0.3125 1.46875 -1.0625 2.578125q-0.75 1.109375 -1.796875 1.84375q-1.03125 0.734375 -2.28125 1.09375q-1.25 0.375 -2.59375 0.375zm1.921875 -7.265625q0.75 0 1.546875 -0.296875q0.796875 -0.296875 1.484375 -0.78125q0.703125 -0.5 1.234375 -1.109375q0.53125 -0.609375 0.78125 -1.25l0.90625 -4.296875q-0.109375 -0.75 -0.453125 -1.390625q-0.34375 -0.640625 -0.84375 -1.09375q-0.5 -0.453125 -1.140625 -0.71875q-0.625 -0.265625 -1.328125 -0.265625q-1.25 0 -2.34375 0.625q-1.09375 0.609375 -1.90625 1.578125q-0.8125 0.96875 -1.28125 2.15625q-0.46875 1.1875 -0.46875 2.328125q0 0.9375 0.265625 1.75q0.265625 0.8125 0.765625 1.4375q0.515625 0.609375 1.21875 0.96875q0.71875 0.359375 1.5625 0.359375zm9.514832 1.328125l0.5625 -2.609375l1.546875 0l-0.5625 2.609375l-1.546875 0z" fill-rule="nonzero"/><path fill="#000000" d="m691.50665 138.70815q-1.765625 0 -3.109375 -0.890625q-1.34375 -0.890625 -2.171875 -2.25l0 8.546875l-1.8125 0l0 -19.5625l1.625 0l0 2.6875q0.859375 -1.296875 2.21875 -2.109375q1.359375 -0.8125 2.953125 -0.8125q1.4375 0 2.640625 0.609375q1.203125 0.59375 2.078125 1.59375q0.875 1.0 1.359375 2.3125q0.5 1.296875 0.5 2.671875q0 1.46875 -0.453125 2.78125q-0.453125 1.296875 -1.296875 2.296875q-0.828125 0.984375 -2.0 1.5625q-1.15625 0.5625 -2.53125 0.5625zm-0.515625 -1.59375q1.125 0 2.046875 -0.484375q0.921875 -0.484375 1.5625 -1.265625q0.65625 -0.78125 1.0 -1.78125q0.359375 -1.0 0.359375 -2.078125q0 -1.109375 -0.40625 -2.125q-0.40625 -1.015625 -1.09375 -1.78125q-0.6875 -0.78125 -1.640625 -1.234375q-0.9375 -0.453125 -2.03125 -0.453125q-0.703125 0 -1.46875 0.28125q-0.75 0.28125 -1.40625 0.75q-0.65625 0.46875 -1.125 1.09375q-0.453125 0.625 -0.5625 1.3125l0 4.265625q0.3125 0.75 0.8125 1.390625q0.5 0.640625 1.125 1.109375q0.625 0.46875 1.34375 0.734375q0.71875 0.265625 1.484375 0.265625zm13.353088 1.59375q-0.984375 0 -1.828125 -0.328125q-0.828125 -0.34375 -1.453125 -0.921875q-0.625 -0.59375 -0.984375 -1.375q-0.34375 -0.78125 -0.34375 -1.6875q0 -0.90625 0.421875 -1.671875q0.4375 -0.78125 1.203125 -1.34375q0.78125 -0.5625 1.84375 -0.859375q1.0625 -0.3125 2.34375 -0.3125q1.0625 0 2.15625 0.1875q1.09375 0.1875 1.953125 0.53125l0 -1.25q0 -1.84375 -1.046875 -2.921875q-1.03125 -1.078125 -2.875 -1.078125q-1.0625 0 -2.1875 0.421875q-1.109375 0.421875 -2.265625 1.234375l-0.640625 -1.203125q2.703125 -1.8125 5.234375 -1.8125q2.609375 0 4.09375 1.46875q1.5 1.453125 1.5 4.046875l0 6.265625q0 0.75 0.671875 0.75l0 1.59375q-0.453125 0.078125 -0.703125 0.078125q-0.6875 0 -1.078125 -0.34375q-0.390625 -0.34375 -0.40625 -0.953125l-0.0625 -1.09375q-0.953125 1.25 -2.40625 1.921875q-1.453125 0.65625 -3.140625 0.65625zm0.4375 -1.390625q1.40625 0 2.59375 -0.53125q1.1875 -0.53125 1.796875 -1.40625q0.25 -0.25 0.359375 -0.515625q0.125 -0.28125 0.125 -0.53125l0 -2.265625q-0.90625 -0.34375 -1.890625 -0.53125q-0.96875 -0.1875 -1.96875 -0.1875q-1.921875 0 -3.125 0.8125q-1.203125 0.796875 -1.203125 2.09375q0 0.640625 0.25 1.203125q0.265625 0.5625 0.703125 0.984375q0.4375 0.40625 1.046875 0.640625q0.609375 0.234375 1.3125 0.234375zm22.277649 1.125l-1.8125 0l0 -7.75q0 -2.484375 -0.734375 -3.59375q-0.734375 -1.125 -2.25 -1.125q-0.796875 0 -1.59375 0.296875q-0.796875 0.28125 -1.484375 0.8125q-0.671875 0.53125 -1.21875 1.265625q-0.53125 0.734375 -0.765625 1.59375l0 8.5l-1.8125 0l0 -13.890625l1.65625 0l0 3.140625q0.84375 -1.515625 2.421875 -2.4375q1.59375 -0.9375 3.46875 -0.9375q1.140625 0 1.9375 0.421875q0.796875 0.421875 1.28125 1.203125q0.484375 0.765625 0.6875 1.890625q0.21875 1.125 0.21875 2.484375l0 8.125zm9.571777 0.265625q-1.4375 0 -2.671875 -0.59375q-1.21875 -0.609375 -2.109375 -1.59375q-0.875 -0.984375 -1.375 -2.265625q-0.484375 -1.296875 -0.484375 -2.71875q0 -1.46875 0.484375 -2.78125q0.484375 -1.328125 1.3125 -2.3125q0.84375 -0.984375 2.0 -1.546875q1.171875 -0.578125 2.546875 -0.578125q1.765625 0 3.125 0.921875q1.359375 0.921875 2.125 2.21875l0 -8.46875l1.8125 0l0 17.109375q0 0.75 0.640625 0.75l0 1.59375q-0.390625 0.078125 -0.640625 0.078125q-0.640625 0 -1.125 -0.40625q-0.46875 -0.421875 -0.46875 -1.0l0 -1.359375q-0.828125 1.359375 -2.25 2.15625q-1.40625 0.796875 -2.921875 0.796875zm0.40625 -1.59375q0.65625 0 1.421875 -0.265625q0.765625 -0.265625 1.421875 -0.734375q0.671875 -0.46875 1.140625 -1.09375q0.46875 -0.625 0.5625 -1.34375l0 -4.296875q-0.265625 -0.71875 -0.78125 -1.34375q-0.5 -0.625 -1.15625 -1.109375q-0.640625 -0.484375 -1.390625 -0.75q-0.75 -0.265625 -1.46875 -0.265625q-1.109375 0 -2.015625 0.484375q-0.90625 0.484375 -1.5625 1.265625q-0.65625 0.78125 -1.0 1.796875q-0.34375 1.015625 -0.34375 2.078125q0 1.125 0.390625 2.140625q0.40625 1.0 1.09375 1.765625q0.703125 0.765625 1.640625 1.21875q0.953125 0.453125 2.046875 0.453125zm16.39264 1.59375q-1.53125 0 -2.78125 -0.5625q-1.25 -0.578125 -2.171875 -1.5625q-0.921875 -1.0 -1.421875 -2.296875q-0.5 -1.3125 -0.5 -2.75q0 -1.46875 0.515625 -2.765625q0.515625 -1.3125 1.4375 -2.296875q0.921875 -0.984375 2.171875 -1.5625q1.25 -0.59375 2.75 -0.59375q1.484375 0 2.75 0.59375q1.265625 0.578125 2.1875 1.5625q0.921875 0.984375 1.4375 2.296875q0.53125 1.296875 0.53125 2.765625q0 1.4375 -0.515625 2.75q-0.5 1.296875 -1.421875 2.296875q-0.921875 0.984375 -2.1875 1.5625q-1.265625 0.5625 -2.78125 0.5625zm-5.046875 -7.140625q0 1.171875 0.390625 2.171875q0.40625 1.0 1.078125 1.765625q0.6875 0.75 1.609375 1.1875q0.921875 0.421875 1.96875 0.421875q1.03125 0 1.953125 -0.4375q0.921875 -0.453125 1.609375 -1.203125q0.703125 -0.765625 1.09375 -1.765625q0.40625 -1.015625 0.40625 -2.203125q0 -1.140625 -0.40625 -2.15625q-0.390625 -1.03125 -1.09375 -1.796875q-0.6875 -0.765625 -1.609375 -1.203125q-0.921875 -0.4375 -1.953125 -0.4375q-1.046875 0 -1.953125 0.4375q-0.90625 0.4375 -1.609375 1.21875q-0.6875 0.765625 -1.09375 1.796875q-0.390625 1.03125 -0.390625 2.203125zm14.032288 -0.109375q0 -1.46875 0.5 -2.765625q0.5 -1.3125 1.421875 -2.28125q0.921875 -0.984375 2.203125 -1.53125q1.28125 -0.5625 2.828125 -0.5625q1.96875 0 3.4375 0.890625q1.46875 0.890625 2.203125 2.40625l-1.75 0.5625q-0.59375 -1.0625 -1.640625 -1.65625q-1.046875 -0.609375 -2.328125 -0.609375q-1.078125 0 -2.0 0.4375q-0.90625 0.421875 -1.59375 1.15625q-0.671875 0.734375 -1.0625 1.75q-0.390625 1.0 -0.390625 2.203125q0 1.171875 0.390625 2.21875q0.40625 1.03125 1.09375 1.796875q0.703125 0.75 1.625 1.203125q0.921875 0.4375 1.953125 0.4375q0.671875 0 1.328125 -0.1875q0.65625 -0.1875 1.203125 -0.515625q0.5625 -0.34375 0.953125 -0.765625q0.40625 -0.421875 0.578125 -0.90625l1.78125 0.53125q-0.296875 0.75 -0.859375 1.375q-0.546875 0.625 -1.3125 1.09375q-0.765625 0.46875 -1.6875 0.71875q-0.90625 0.25 -1.890625 0.25q-1.53125 0 -2.8125 -0.5625q-1.28125 -0.578125 -2.21875 -1.578125q-0.921875 -1.0 -1.4375 -2.296875q-0.515625 -1.3125 -0.515625 -2.8125z" fill-rule="nonzero"/><path fill="#000000" fill-opacity="0.0" d="m-1.2047244 63.842518l248.69292 0l0 63.842518l-248.69292 0z" fill-rule="evenodd"/><path fill="#000000" d="m10.732776 79.84564l7.609374 0q5.734375 0 8.421875 2.359375q2.6875 2.359375 2.6875 7.671875q0 7.28125 -4.671875 8.828125l5.359375 18.9375l-5.078125 0l-4.953125 -17.734375l-4.09375 0l0 17.734375l-5.281249 0l0 -37.796875zm7.281249 16.28125q3.40625 0 4.875 -1.34375q1.46875 -1.359375 1.46875 -4.90625q0 -2.328125 -0.515625 -3.65625q-0.515625 -1.328125 -1.828125 -1.953125q-1.296875 -0.640625 -3.671875 -0.640625l-2.328125 0l0 12.5l2.0 0zm17.542665 -16.28125l5.171875 0l6.671875 30.65625l6.71875 -30.65625l5.140625 0l0.703125 37.796875l-4.25 0l-0.421875 -27.4375l-6.390625 27.4375l-2.984375 0l-6.34375 -27.4375l-0.421875 27.4375l-4.296875 0l0.703125 -37.796875zm34.621166 38.171875q-1.546875 0 -2.78125 -0.890625q-1.234375 -0.890625 -1.9375 -2.328125q-0.703125 -1.453125 -0.703125 -3.03125q0 -3.171875 1.359375 -5.15625q1.359375 -1.984375 3.453125 -3.140625q2.09375 -1.171875 5.828125 -2.671875l0 -1.90625q0 -2.671875 -0.53125 -3.765625q-0.53125 -1.09375 -2.171875 -1.09375q-2.84375 0 -2.84375 3.828125l0 1.359375l-4.953125 -0.1875q0.09375 -4.484375 2.046875 -6.609375q1.96875 -2.125 6.078125 -2.125q3.875 0 5.625 2.125q1.75 2.125 1.75 6.421875l0 12.3125q0 3.03125 0.46875 6.484375l-4.578125 0q-0.515625 -2.65625 -0.65625 -3.96875q-0.5625 1.828125 -1.9375 3.09375q-1.375 1.25 -3.515625 1.25zm1.953125 -4.296875q0.984375 0 1.90625 -0.765625q0.9375 -0.765625 1.359375 -1.46875l0 -7.65625q-2.0 1.125 -3.109375 1.9375q-1.09375 0.8125 -1.8125 1.890625q-0.71875 1.078125 -0.71875 2.5625q0 1.6875 0.609375 2.59375q0.609375 0.90625 1.765625 0.90625zm13.203644 -23.046875l5.0 0l0 3.828125q1.390625 -2.28125 2.859375 -3.21875q1.46875 -0.9375 3.109375 -0.9375q0.421875 0 0.796875 0.046875l0 5.515625q-1.5 -0.5625 -2.765625 -0.5625q-1.203125 0 -2.171875 0.578125q-0.953125 0.578125 -1.828125 2.03125l0 19.6875l-5.0 0l0 -26.96875zm14.929749 -10.875l5.0 0l0 22.546875l7.28125 -11.671875l5.21875 0l-6.34375 10.546875l6.15625 16.421875l-4.984375 0l-5.046875 -13.8125l-2.28125 3.453125l0 10.3125l-5.0 0l0 -37.796875zm26.171738 38.21875q-3.5 0 -5.140625 -2.546875q-1.625 -2.546875 -1.625 -8.421875l0 -5.21875q0 -5.375 1.421875 -8.453125q1.4375 -3.078125 5.203125 -3.078125q2.390625 0 4.484375 2.109375l0 -12.5625l5.0 0l0 37.796875l-5.0 0l0 -1.71875q-1.953125 2.09375 -4.34375 2.09375zm1.265625 -3.921875q1.5 0 3.078125 -1.03125l0 -17.671875q-1.71875 -1.171875 -3.171875 -1.171875q-2.9375 0 -2.9375 5.640625l0 7.609375q0 3.265625 0.609375 4.953125q0.609375 1.671875 2.421875 1.671875zm20.52826 3.921875q-4.296875 0 -6.09375 -2.546875q-1.796875 -2.546875 -1.796875 -7.390625l0 -7.84375q0 -4.84375 1.796875 -7.390625q1.796875 -2.546875 6.09375 -2.546875q4.25 0 6.046875 2.546875q1.796875 2.546875 1.796875 7.390625l0 7.84375q0 4.84375 -1.796875 7.390625q-1.796875 2.546875 -6.046875 2.546875zm0 -3.6875q1.359375 0 1.953125 -0.796875q0.609375 -0.796875 0.75 -1.953125q0.140625 -1.171875 0.140625 -3.171875l0 -8.453125q0 -2.0 -0.140625 -3.1875q-0.140625 -1.1875 -0.75 -1.984375q-0.59375 -0.796875 -1.953125 -0.796875q-1.359375 0 -1.984375 0.796875q-0.625 0.796875 -0.765625 1.984375q-0.140625 1.1875 -0.140625 3.1875l0 8.453125q0 2.0 0.140625 3.171875q0.140625 1.15625 0.765625 1.953125q0.625 0.796875 1.984375 0.796875zm11.203857 -23.65625l4.09375 0l2.8125 19.875l3.578125 -19.875l3.828125 0l3.59375 19.78125l2.796875 -19.78125l4.109375 0l-4.46875 26.96875l-4.203125 0l-3.6875 -19.03125l-3.640625 19.03125l-4.484375 0l-4.328125 -26.96875zm28.636932 0l5.0 0l0 2.65625q3.21875 -3.03125 6.578125 -3.03125q2.1875 0 3.125 1.59375q0.9375 1.578125 0.9375 3.921875l0 21.828125l-5.0 0l0 -20.390625q0 -1.53125 -0.46875 -2.28125q-0.46875 -0.75 -1.671875 -0.75q-1.5 0 -3.5 1.6875l0 21.734375l-5.0 0l0 -26.96875z" fill-rule="nonzero"/><path fill="#000000" fill-opacity="0.0" d="m240.67438 106.2126l121.60629 0" fill-rule="evenodd"/><path stroke="#000000" stroke-width="3.0" stroke-linejoin="round" stroke-linecap="butt" d="m240.67438 106.2126l103.60629 0" fill-rule="evenodd"/><path fill="#000000" stroke="#000000" stroke-width="3.0" stroke-linecap="butt" d="m344.28067 111.16779l13.614288 -4.9551926l-13.614288 -4.9552z" fill-rule="evenodd"/><path fill="#000000" fill-opacity="0.0" d="m171.71185 96.0l263.02362 0l0 63.842514l-263.02362 0z" fill-rule="evenodd"/><path fill="#000000" d="m281.31567 111.14687l1.8125 0l-2.03125 9.53125q1.359375 -1.859375 3.015625 -3.046875q1.65625 -1.1875 3.546875 -1.1875q1.484375 0 2.203125 0.765625q0.71875 0.75 0.71875 2.03125q0 1.734375 -1.265625 3.140625q-1.265625 1.390625 -3.65625 2.1875l3.109375 6.0312424l-1.96875 0l-3.296875 -6.7968674q2.65625 -0.5625 4.03125 -1.75q1.375 -1.203125 1.375 -2.5625q0 -0.8125 -0.46875 -1.171875q-0.46875 -0.375 -1.234375 -0.375q-0.875 0 -1.796875 0.421875q-0.921875 0.40625 -1.8125 1.15625q-0.875 0.734375 -1.6875 1.78125q-0.8125 1.03125 -1.453125 2.3125l-1.46875 6.9843674l-1.8125 0l4.140625 -19.453117zm13.084595 5.5625l1.671875 0l-0.6875 3.140625q0.5625 -0.734375 1.296875 -1.359375q0.734375 -0.625 1.546875 -1.078125q0.8125 -0.453125 1.6875 -0.6875q0.875 -0.25 1.765625 -0.25q1.625 0 2.3125 0.875q0.703125 0.875 0.703125 2.421875q0 0.625 -0.09375 1.28125q-0.09375 0.640625 -0.265625 1.421875l-1.703125 8.124992l-1.8125 0l1.65625 -7.7499924q0.265625 -1.3125 0.265625 -2.265625q0 -2.453125 -2.078125 -2.453125q-0.75 0 -1.5625 0.296875q-0.8125 0.28125 -1.578125 0.8125q-0.75 0.53125 -1.390625 1.265625q-0.640625 0.734375 -1.0625 1.59375l-1.796875 8.499992l-1.8125 0l2.9375 -13.890617zm14.900787 0l1.8125 0l-2.9375 13.890617l-1.8125 0l2.9375 -13.890617zm1.203125 -5.5625l1.8125 0l-0.5625 2.65625l-1.8125 0l0.5625 -2.65625zm4.896515 19.609367q-1.015625 0 -1.671875 -0.484375q-0.640625 -0.5 -0.640625 -1.515625q0 -0.28125 0.078125 -0.65625l2.109375 -9.953117l-1.84375 0l0.328125 -1.4375l1.8125 0l1.0 -4.6875l1.8125 0l-1.0 4.6875l3.03125 0l-0.3125 1.4375l-3.015625 0l-1.921875 9.046875q-0.046875 0.28125 -0.09375 0.453125q-0.046875 0.15625 -0.046875 0.28125q0 0.6249924 0.375 0.8906174q0.375 0.265625 0.90625 0.265625q0.71875 0 1.328125 -0.25q0.625 -0.265625 0.8125 -0.359375l0.15625 1.453125q-0.34375 0.25 -1.234375 0.546875q-0.890625 0.28125 -1.96875 0.28125zm8.134735 -14.046867l1.703125 0l-0.71875 3.328125q1.046875 -1.515625 2.359375 -2.40625q1.328125 -0.890625 2.6875 -0.953125q0.203125 0 0.34375 0.015625q0.15625 0.015625 0.296875 0.046875l-0.359375 1.578125q-1.734375 0.046875 -3.234375 1.015625q-1.484375 0.953125 -2.390625 2.625l-1.8125 8.640617l-1.8125 0l2.9375 -13.890617z" fill-rule="nonzero"/><path fill="#000000" fill-opacity="0.0" d="m196.98743 48.0l212.47244 0l0 63.84252l-212.47244 0z" fill-rule="evenodd"/><path fill="#000000" d="m245.2715 89.328125q-1.53125 0 -2.765625 -0.578125q-1.234375 -0.578125 -2.09375 -1.578125q-0.84375 -1.0 -1.296875 -2.328125q-0.453125 -1.34375 -0.453125 -2.84375q0 -2.09375 0.828125 -4.03125q0.84375 -1.9375 2.25 -3.421875q1.421875 -1.484375 3.296875 -2.34375q1.890625 -0.859375 4.03125 -0.859375q2.359375 0 3.875 1.109375q1.515625 1.109375 1.984375 3.015625l-2.328125 0.703125q-0.40625 -1.34375 -1.46875 -2.09375q-1.0625 -0.75 -2.5625 -0.75q-1.46875 0 -2.828125 0.671875q-1.34375 0.671875 -2.40625 1.8125q-1.0625 1.125 -1.703125 2.65625q-0.625 1.53125 -0.625 3.234375q0 1.203125 0.328125 2.21875q0.328125 1.015625 0.921875 1.78125q0.609375 0.765625 1.453125 1.203125q0.859375 0.421875 1.890625 0.421875q0.796875 0 1.609375 -0.234375q0.828125 -0.234375 1.5625 -0.640625q0.734375 -0.421875 1.3125 -0.953125q0.578125 -0.53125 0.875 -1.125l2.109375 0.65625q-0.53125 0.9375 -1.375 1.71875q-0.828125 0.78125 -1.859375 1.375q-1.03125 0.578125 -2.203125 0.890625q-1.171875 0.3125 -2.359375 0.3125zm17.421188 0q-1.53125 0 -2.75 -0.578125q-1.21875 -0.578125 -2.046875 -1.5625q-0.828125 -0.984375 -1.28125 -2.296875q-0.453125 -1.328125 -0.453125 -2.828125q0 -2.09375 0.84375 -4.015625q0.859375 -1.9375 2.28125 -3.421875q1.4375 -1.484375 3.296875 -2.375q1.875 -0.90625 3.953125 -0.90625q1.53125 0 2.71875 0.578125q1.203125 0.578125 2.046875 1.5625q0.859375 0.984375 1.3125 2.328125q0.453125 1.328125 0.453125 2.828125q0 2.0625 -0.859375 4.0q-0.84375 1.921875 -2.265625 3.40625q-1.40625 1.484375 -3.296875 2.390625q-1.875 0.890625 -3.953125 0.890625zm0.4375 -2.0q1.40625 0 2.765625 -0.671875q1.359375 -0.6875 2.421875 -1.828125q1.078125 -1.15625 1.734375 -2.671875q0.671875 -1.515625 0.671875 -3.21875q0 -1.171875 -0.328125 -2.203125q-0.328125 -1.03125 -0.953125 -1.78125q-0.609375 -0.75 -1.46875 -1.1875q-0.84375 -0.4375 -1.875 -0.4375q-1.40625 0 -2.765625 0.6875q-1.34375 0.6875 -2.421875 1.859375q-1.078125 1.15625 -1.75 2.6875q-0.65625 1.53125 -0.65625 3.234375q0 1.171875 0.328125 2.1875q0.328125 1.015625 0.9375 1.765625q0.625 0.75 1.46875 1.171875q0.859375 0.40625 1.890625 0.40625zm15.30011 -15.6875l2.09375 0l-0.859375 3.921875q1.390625 -1.953125 3.265625 -3.078125q1.890625 -1.140625 3.859375 -1.140625q2.0 0 2.984375 1.1875q0.984375 1.171875 0.984375 3.34375q1.46875 -2.234375 3.375 -3.375q1.921875 -1.15625 3.921875 -1.15625q2.109375 0 2.984375 1.140625q0.890625 1.125 0.890625 3.125q0 1.421875 -0.40625 3.21875l-2.171875 10.171875l-2.265625 0l2.03125 -9.703125q0.171875 -0.765625 0.25 -1.4375q0.09375 -0.6875 0.09375 -1.25q0 -3.203125 -2.640625 -3.203125q-0.921875 0 -1.84375 0.375q-0.921875 0.359375 -1.75 1.03125q-0.828125 0.65625 -1.546875 1.578125q-0.71875 0.90625 -1.25 2.015625l-2.234375 10.59375l-2.265625 0l2.03125 -9.703125q0.171875 -0.828125 0.265625 -1.5q0.09375 -0.6875 0.09375 -1.265625q0 -3.125 -2.625 -3.125q-1.875 0 -3.609375 1.375q-1.71875 1.359375 -2.828125 3.59375l-2.234375 10.625l-2.265625 0l3.671875 -17.359375zm29.293274 0l2.0 0l-0.703125 3.359375q1.328125 -1.625 3.15625 -2.640625q1.84375 -1.015625 3.75 -1.015625q1.421875 0 2.578125 0.59375q1.15625 0.59375 1.953125 1.59375q0.796875 1.0 1.203125 2.34375q0.421875 1.328125 0.421875 2.765625q0 2.03125 -0.765625 3.96875q-0.765625 1.921875 -2.09375 3.421875q-1.328125 1.5 -3.078125 2.40625q-1.75 0.890625 -3.6875 0.890625q-2.109375 0 -3.453125 -1.109375q-1.34375 -1.125 -1.953125 -2.8125l-2.265625 10.6875l-2.265625 0l5.203125 -24.453125zm4.53125 15.6875q1.5 0 2.859375 -0.75q1.375 -0.75 2.390625 -1.921875q1.015625 -1.1875 1.609375 -2.671875q0.609375 -1.484375 0.609375 -2.984375q0 -1.171875 -0.34375 -2.203125q-0.328125 -1.03125 -0.96875 -1.796875q-0.625 -0.765625 -1.5 -1.21875q-0.859375 -0.453125 -1.953125 -0.453125q-0.796875 0 -1.75 0.359375q-0.953125 0.34375 -1.859375 0.9375q-0.890625 0.578125 -1.609375 1.359375q-0.71875 0.78125 -1.046875 1.65625l-1.140625 5.328125q0.171875 0.9375 0.578125 1.734375q0.421875 0.796875 1.03125 1.390625q0.625 0.578125 1.40625 0.90625q0.78125 0.328125 1.6875 0.328125zm15.20105 -15.6875l2.265625 0l-3.671875 17.359375l-2.265625 0l3.671875 -17.359375zm1.5 -6.96875l2.265625 0l-0.703125 3.328125l-2.265625 0l0.703125 -3.328125zm5.192627 24.53125q-1.234375 0 -1.9375 -0.625q-0.6875 -0.640625 -0.6875 -1.8125q0 -0.203125 0.03125 -0.4375q0.03125 -0.234375 0.09375 -0.5l4.46875 -21.15625l2.265625 0l-4.328125 20.390625q-0.03125 0.171875 -0.046875 0.3125q-0.015625 0.125 -0.015625 0.296875q0 1.46875 1.5625 1.46875q0.359375 0 0.859375 -0.09375q0.5 -0.109375 0.96875 -0.28125l-0.0625 1.828125q-0.671875 0.265625 -1.59375 0.4375q-0.90625 0.171875 -1.578125 0.171875zm12.7673645 0.125q-1.59375 0 -2.84375 -0.5625q-1.25 -0.5625 -2.109375 -1.5625q-0.84375 -1.0 -1.296875 -2.328125q-0.453125 -1.34375 -0.453125 -2.875q0 -2.0625 0.796875 -3.96875q0.8125 -1.921875 2.203125 -3.40625q1.40625 -1.484375 3.3125 -2.375q1.921875 -0.90625 4.15625 -0.90625q1.140625 0 2.15625 0.296875q1.015625 0.296875 1.765625 0.890625q0.75 0.578125 1.171875 1.46875q0.4375 0.875 0.4375 2.0q0 2.5625 -2.265625 3.875q-2.265625 1.296875 -7.0 1.296875q-0.9375 0 -2.015625 -0.03125q-1.078125 -0.046875 -2.34375 -0.140625q-0.03125 0.265625 -0.046875 0.5q-0.015625 0.234375 -0.015625 0.46875q0 1.125 0.296875 2.15625q0.296875 1.015625 0.890625 1.796875q0.609375 0.78125 1.5 1.234375q0.90625 0.4375 2.109375 0.4375q0.796875 0 1.625 -0.21875q0.828125 -0.234375 1.578125 -0.65625q0.75 -0.421875 1.390625 -1.015625q0.640625 -0.609375 1.0625 -1.328125l1.875 0.5625q-0.609375 0.96875 -1.484375 1.78125q-0.859375 0.8125 -1.90625 1.40625q-1.046875 0.578125 -2.203125 0.890625q-1.140625 0.3125 -2.34375 0.3125zm3.53125 -16.21875q-1.5 0 -2.734375 0.53125q-1.234375 0.53125 -2.203125 1.40625q-0.953125 0.859375 -1.625 2.0q-0.671875 1.125 -1.0 2.328125q1.203125 0.0625 2.21875 0.109375q1.015625 0.046875 1.953125 0.046875q1.953125 0 3.3125 -0.265625q1.375 -0.265625 2.203125 -0.734375q0.84375 -0.46875 1.203125 -1.125q0.375 -0.671875 0.375 -1.4375q0 -1.5 -1.109375 -2.171875q-1.09375 -0.6875 -2.59375 -0.6875zm10.70343 -1.46875l2.125 0l-0.890625 4.15625q1.296875 -1.890625 2.9375 -3.0q1.65625 -1.125 3.359375 -1.1875q0.265625 0 0.4375 0.015625q0.1875 0.015625 0.359375 0.046875l-0.4375 1.96875q-2.15625 0.0625 -4.03125 1.265625q-1.859375 1.203125 -3.0 3.296875l-2.265625 10.796875l-2.265625 0l3.671875 -17.359375z" fill-rule="nonzero"/></g></svg>